<?xml version="1.0" encoding="UTF-8"?>
<svg width="14px" height="15px" viewBox="0 0 14 15" version="1.1" xmlns="http://www.w3.org/2000/svg" xmlns:xlink="http://www.w3.org/1999/xlink">
    <!-- Generator: Sketch 51.3 (57544) - http://www.bohemiancoding.com/sketch -->
    <title>back</title>
    <desc>Created with Sketch.</desc>
    <defs></defs>
    <g id="ðŸ‘-Pallas-UI-Kit" stroke="none" stroke-width="1" fill="none" fill-rule="evenodd">
        <g id="Chat-Window" transform="translate(-18.000000, -57.000000)" fill="#D6D8DF">
            <g id="back" transform="translate(18.000000, 57.000000)">
                <path d="M0.284472222,6.43863158 C-0.0966388889,6.82271053 -0.0939166667,7.44639474 0.287583333,7.82928947 L6.43319444,13.9935 C7.16663889,14.7379737 8.26641667,13.6216579 7.53297222,12.8771842 L2.91608333,8.19047368 C2.76286111,8.03455263 2.81302778,7.90902632 3.02730556,7.90902632 L13.2053056,7.90902632 C13.6350278,7.90902632 13.9830833,7.55573684 13.9830833,7.11955263 C13.9830833,6.68376316 13.6350278,6.33007895 13.2053056,6.33007895 L3.02730556,6.33007895 C2.81263889,6.33007895 2.75975,6.20731579 2.91608333,6.04863158 L7.53297222,1.36192105 C8.26641667,0.617842105 7.16663889,-0.498868421 6.43319444,0.245605263 L0.284472222,6.43863158 Z" id="Fill-1"></path>
            </g>
        </g>
    </g>
</svg>