<?xml version="1.0" encoding="UTF-8"?>
<svg width="32px" height="30px" viewBox="0 0 32 30" version="1.1" xmlns="http://www.w3.org/2000/svg" xmlns:xlink="http://www.w3.org/1999/xlink">
    <!-- Generator: Sketch 51.3 (57544) - http://www.bohemiancoding.com/sketch -->
    <title>bathtub</title>
    <desc>Created with Sketch.</desc>
    <defs></defs>
    <g id="Vendor" stroke="none" stroke-width="1" fill="none" fill-rule="evenodd">
        <g id="Listing-Detail" transform="translate(-152.000000, -533.000000)" fill="#000000" fill-rule="nonzero">
            <g id="property-details" transform="translate(19.000000, 415.000000)">
                <g id="key-details" transform="translate(1.000000, 118.000000)">
                    <g id="bathtub" transform="translate(132.000000, 0.000000)">
                        <path d="M30.4,16.0711506 L29.8666875,16.0711506 L29.8666875,4.8242887 C29.8666875,2.14644351 27.733375,0.00420502092 25.0666875,0.00420502092 C22.7060625,0.00420502092 21.00825,1.76190377 20.8183125,4.33732218 C19.579,4.5725523 18.6666875,5.64439331 18.6666875,6.9665272 C18.6666875,7.28786611 18.88,7.50207113 19.2,7.50207113 L23.4666875,7.50207113 C23.7866875,7.50207113 24,7.28786611 24,6.9665272 C24,5.65901674 23.107875,4.59608787 21.8895625,4.34516736 C22.0489375,2.64332636 23.0668125,1.07529289 25.0666875,1.07529289 C27.1466875,1.07529289 28.8,2.73552301 28.8,4.82422594 L28.8,16.0710879 L12.7484375,16.0710879 C12.5071875,14.8358787 11.4435625,13.9288494 10.133375,13.9288494 C9.6000625,13.2861715 8.853375,12.8576987 8.0000625,12.8576987 C6.98675,12.8576987 6.0800625,13.446841 5.653375,14.3037238 C5.2266875,14.0895188 4.7466875,13.9288494 4.2666875,13.9288494 C2.9565,13.9288494 1.892875,14.8358787 1.651625,16.0710879 L1.6,16.0710879 C0.6933125,16.0710879 0,16.7673013 0,17.6777824 C0,18.5882636 0.6933125,19.284477 1.6,19.284477 L2.2409375,19.284477 L3.68,25.0150418 C4.1066875,26.675272 5.6,27.8535565 7.3066875,27.8535565 L7.733375,27.8535565 L7.0400625,29.246046 C6.8800625,29.5138494 6.98675,29.8351883 7.253375,29.9422594 C7.3066875,29.995795 7.413375,29.995795 7.4666875,29.995795 C7.68,29.995795 7.84,29.8886611 7.9466875,29.7279916 L8.88,27.8535565 L23.68,27.8535565 L24.5866875,29.6744561 C24.693375,29.8886611 24.853375,29.995795 25.0666875,29.995795 C25.173375,29.995795 25.2266875,29.995795 25.28,29.8886611 C25.4933125,29.7815272 25.6,29.4601883 25.4933125,29.1924477 L24.82525,27.8506695 C26.4764375,27.7917992 27.904375,26.6337238 28.32,25.0685774 L29.7725,19.284477 L30.4,19.284477 C31.3066875,19.284477 32,18.5882636 32,17.6777824 C32,16.767364 31.3066875,16.0711506 30.4,16.0711506 Z M22.88,6.43098326 L19.84,6.43098326 C20.0533125,5.78830544 20.6933125,5.35983264 21.3866875,5.35983264 C22.0800625,5.35983264 22.6666875,5.78830544 22.88,6.43098326 Z M4.2666875,15 C4.7466875,15 5.173375,15.214205 5.5466875,15.5891423 C5.653375,15.7498117 5.8666875,15.8033473 6.08,15.7498117 C6.2933125,15.6962762 6.4,15.5356067 6.4533125,15.3213389 C6.6133125,14.5179916 7.2533125,13.9288494 8.0533125,13.9288494 C8.64,13.9288494 9.1733125,14.1966527 9.44,14.7321967 C9.5466875,14.9464017 9.8133125,15.0535356 10.0266875,15 C10.08,15 10.133375,15 10.1866875,15 C10.88,15 11.4666875,15.4284728 11.68,16.0711506 L2.7733125,16.0711506 C2.9866875,15.4284728 3.5733125,15 4.2666875,15 Z M27.36,24.7473013 C27.04,25.925523 25.9733125,26.7824686 24.7466875,26.7824686 L7.36,26.7824686 C6.1333125,26.7824686 5.0666875,25.9255858 4.7466875,24.7473013 L3.36,19.2845397 L28.64,19.2845397 L27.36,24.7473013 Z M30.4,18.2133891 L29.3333125,18.2133891 L2.6666875,18.2133891 L1.6,18.2133891 C1.28,18.2133891 1.0666875,17.9991841 1.0666875,17.6778452 C1.0666875,17.3565063 1.28,17.1423013 1.6,17.1423013 L2.1333125,17.1423013 L12.266625,17.1423013 L30.4,17.1423013 C30.72,17.1423013 30.9333125,17.3565063 30.9333125,17.6778452 C30.9333125,17.9991841 30.72,18.2133891 30.4,18.2133891 Z" id="Shape"></path>
                        <path d="M19.2,9.91211297 C19.52,9.91211297 19.7333125,9.69790795 19.7333125,9.37656904 L19.7333125,9.10876569 C19.7333125,8.78742678 19.52,8.57322176 19.2,8.57322176 C18.88,8.57322176 18.6666875,8.78742678 18.6666875,9.10876569 L18.6666875,9.37656904 C18.6666875,9.69790795 18.88,9.91211297 19.2,9.91211297 Z" id="Path"></path>
                        <path d="M19.2,12.3757531 C19.52,12.3757531 19.7333125,12.1079498 19.7333125,11.8402092 L19.7333125,11.2510669 C19.7333125,10.929728 19.52,10.715523 19.2,10.715523 C18.88,10.715523 18.6666875,10.929728 18.6666875,11.2510669 L18.6666875,11.8402092 C18.6666875,12.1614854 18.88,12.3757531 19.2,12.3757531 Z" id="Path"></path>
                        <path d="M19.2,14.4644561 C19.52,14.4644561 19.7333125,14.250251 19.7333125,13.9289121 L19.7333125,13.6611088 C19.7333125,13.3397699 19.52,13.1255649 19.2,13.1255649 C18.88,13.1255649 18.6666875,13.3397699 18.6666875,13.6611088 L18.6666875,13.9289121 C18.6666875,14.2501883 18.88,14.4644561 19.2,14.4644561 Z" id="Path"></path>
                        <path d="M21.3333125,9.91211297 C21.6533125,9.91211297 21.866625,9.69790795 21.866625,9.37656904 L21.866625,9.10876569 C21.866625,8.78742678 21.6533125,8.57322176 21.3333125,8.57322176 C21.0133125,8.57322176 20.8,8.78742678 20.8,9.10876569 L20.8,9.37656904 C20.8,9.69790795 21.0133125,9.91211297 21.3333125,9.91211297 Z" id="Path"></path>
                        <path d="M20.8,11.8401464 C20.8,12.1614854 21.0133125,12.3756904 21.3333125,12.3756904 C21.6533125,12.3756904 21.866625,12.107887 21.866625,11.8401464 L21.866625,11.2510042 C21.866625,10.9296653 21.6533125,10.7154603 21.3333125,10.7154603 C21.0133125,10.7154603 20.8,10.9296653 20.8,11.2510042 L20.8,11.8401464 Z" id="Path"></path>
                        <path d="M20.8,13.9288494 C20.8,14.2501883 21.0133125,14.4643933 21.3333125,14.4643933 C21.6533125,14.4643933 21.866625,14.2501883 21.866625,13.9288494 L21.866625,13.661046 C21.866625,13.3397071 21.6533125,13.1255021 21.3333125,13.1255021 C21.0133125,13.1255021 20.8,13.3397071 20.8,13.661046 L20.8,13.9288494 Z" id="Path"></path>
                        <path d="M23.4666875,9.91211297 C23.7866875,9.91211297 24,9.69790795 24,9.37656904 L24,9.10876569 C24,8.78742678 23.7866875,8.57322176 23.4666875,8.57322176 C23.1466875,8.57322176 22.933375,8.78742678 22.933375,9.10876569 L22.933375,9.37656904 C22.9333125,9.69790795 23.1466875,9.91211297 23.4666875,9.91211297 Z" id="Path"></path>
                        <path d="M22.9333125,11.8401464 C22.9333125,12.1614854 23.146625,12.3756904 23.466625,12.3756904 C23.786625,12.3756904 24,12.1079498 24,11.8401464 L24,11.2510042 C24,10.9296653 23.7866875,10.7154603 23.4666875,10.7154603 C23.1466875,10.7154603 22.933375,10.9296653 22.933375,11.2510042 L22.933375,11.8401464 L22.9333125,11.8401464 Z" id="Path"></path>
                        <path d="M22.9333125,13.9288494 C22.9333125,14.2501883 23.146625,14.4643933 23.466625,14.4643933 C23.786625,14.4643933 23.9999375,14.2501883 23.9999375,13.9288494 L23.9999375,13.661046 C23.9999375,13.3397071 23.786625,13.1255021 23.466625,13.1255021 C23.146625,13.1255021 22.9333125,13.3397071 22.9333125,13.661046 L22.9333125,13.9288494 Z" id="Path"></path>
                    </g>
                </g>
            </g>
        </g>
    </g>
</svg>