<?xml version="1.0" encoding="UTF-8"?>
<svg width="28px" height="19px" viewBox="0 0 28 19" version="1.1" xmlns="http://www.w3.org/2000/svg" xmlns:xlink="http://www.w3.org/1999/xlink">
    <!-- Generator: Sketch 51.3 (57544) - http://www.bohemiancoding.com/sketch -->
    <title>bed</title>
    <desc>Created with Sketch.</desc>
    <defs></defs>
    <g id="Vendor" stroke="none" stroke-width="1" fill="none" fill-rule="evenodd">
        <g id="Listing-Detail" transform="translate(-22.000000, -541.000000)" fill="#000000" fill-rule="nonzero">
            <g id="property-details" transform="translate(19.000000, 415.000000)">
                <g id="key-details" transform="translate(1.000000, 118.000000)">
                    <g id="bed" transform="translate(2.000000, 8.000000)">
                        <path d="M25.2748663,7.37559055 L25.2748663,7.34566929 L25.2748663,2.82755906 C25.2748663,0.792913386 23.8374332,0.0448818898 22.4898396,0.0448818898 L5.42032086,0.0448818898 C4.07272727,0.0448818898 2.63529412,0.762992126 2.63529412,2.82755906 L2.63529412,7.34566929 L2.63529412,7.37559055 C1.28770053,7.52519685 2.84217094e-14,8.42283465 2.84217094e-14,10.4874016 L2.84217094e-14,14.0181102 C2.84217094e-14,14.6165354 0.479144385,15.0952756 1.07807487,15.0952756 L1.43743316,15.0952756 L1.43743316,17.8779528 C1.43743316,18.476378 1.91657754,18.9551181 2.51550802,18.9551181 L3.53368984,18.9551181 C4.13262032,18.9551181 4.61176471,18.476378 4.61176471,17.8779528 L4.61176471,15.0653543 L23.3882353,15.0653543 L23.3882353,17.8779528 C23.3882353,18.476378 23.8673797,18.9551181 24.4663102,18.9551181 L25.484492,18.9551181 C26.0834225,18.9551181 26.5625668,18.476378 26.5625668,17.8779528 L26.5625668,15.0653543 L26.9219251,15.0653543 C27.5208556,15.0653543 28,14.5866142 28,13.988189 L28,10.4874016 C27.9101604,8.42283465 26.6224599,7.52519685 25.2748663,7.37559055 Z M3.65347594,2.82755906 L3.71336898,2.82755906 C3.71336898,1.42125984 4.64171123,1.12204724 5.42032086,1.12204724 L22.4898396,1.12204724 C23.2684492,1.12204724 24.1967914,1.42125984 24.1967914,2.82755906 L24.1967914,7.34566929 L23.3882353,7.34566929 L23.3882353,4.77244094 C23.3882353,4.17401575 22.9090909,3.69527559 22.3101604,3.69527559 L15.7219251,3.69527559 C15.1229947,3.69527559 14.6438503,4.17401575 14.6438503,4.77244094 L14.6438503,7.34566929 L13.3860963,7.34566929 L13.3860963,4.77244094 C13.3860963,4.17401575 12.9069519,3.69527559 12.3080214,3.69527559 L5.7197861,3.69527559 C5.12085561,3.69527559 4.64171123,4.17401575 4.64171123,4.77244094 L4.64171123,7.34566929 L3.65347594,7.34566929 L3.65347594,2.82755906 Z M22.3101604,4.77244094 L22.3101604,7.34566929 L15.7219251,7.34566929 L15.7219251,4.77244094 L22.3101604,4.77244094 Z M12.3679144,4.77244094 L12.3679144,7.34566929 L5.77967914,7.34566929 L5.77967914,4.77244094 L12.3679144,4.77244094 Z M3.50374332,17.8779528 L2.4855615,17.8779528 L2.4855615,15.0653543 L3.50374332,15.0653543 L3.50374332,17.8779528 Z M25.4245989,17.8779528 L24.4064171,17.8779528 L24.4064171,15.0653543 L25.4245989,15.0653543 L25.4245989,17.8779528 Z M26.8320856,14.0181102 L25.4245989,14.0181102 L24.4064171,14.0181102 L3.50374332,14.0181102 L2.4855615,14.0181102 L1.04812834,14.0181102 L1.04812834,12.4322835 L26.8320856,12.4322835 L26.8320856,14.0181102 Z M26.8320856,11.3551181 L1.04812834,11.3551181 L1.04812834,10.4874016 C1.04812834,8.69212598 2.3657754,8.42283465 3.1144385,8.42283465 L3.68342246,8.42283465 L5.74973262,8.42283465 L12.3379679,8.42283465 L15.7219251,8.42283465 L22.3101604,8.42283465 L24.1967914,8.42283465 L24.7657754,8.42283465 C25.544385,8.42283465 26.8320856,8.69212598 26.8320856,10.4874016 L26.8320856,11.3551181 Z" id="Shape"></path>
                    </g>
                </g>
            </g>
        </g>
    </g>
</svg>