<?xml version="1.0" encoding="UTF-8"?>
<svg width="40px" height="40px" viewBox="0 0 40 40" version="1.1" xmlns="http://www.w3.org/2000/svg" xmlns:xlink="http://www.w3.org/1999/xlink">
    <!-- Generator: Sketch 51.3 (57544) - http://www.bohemiancoding.com/sketch -->
    <title>ic</title>
    <desc>Created with Sketch.</desc>
    <defs></defs>
    <g id="Vendor" stroke="none" stroke-width="1" fill="none" fill-rule="evenodd">
        <g id="Dashboard---calendar" transform="translate(-319.000000, -66.000000)">
            <g id="user" transform="translate(24.000000, 60.000000)">
                <g id="ic" transform="translate(295.000000, 6.000000)">
                    <g id="Others/Smooth-Shape" fill="#FFFFFF">
                        <path d="M20,0 C25,0 30.5555556,0.380152778 34.3055556,2.77777778 C35.505,3.54463889 36.4554167,4.495 37.2222222,5.69444444 C39.6198611,9.44444444 40,15 40,20 C40,25 39.6198611,30.5555556 37.2222222,34.3055556 C36.4554167,35.505 35.505,36.4554167 34.3055556,37.2222222 C30.5555556,39.6198611 25,40 20,40 C15,40 9.44444444,39.6198611 5.69444444,37.2222222 C4.495,36.4554167 3.54463889,35.505 2.77777778,34.3055556 C0.380152778,30.5555556 0,25 0,20 C0,15 0.380152778,9.44444444 2.77777778,5.69444444 C3.54463889,4.495 4.495,3.54463889 5.69444444,2.77777778 C9.44444444,0.380152778 15,0 20,0 Z" id="Fill"></path>
                    </g>
                    <g id="ic_notification" transform="translate(8.000000, 8.000000)">
                        <rect id="Rectangle" fill="#000000" opacity="0" x="0" y="0" width="24" height="24"></rect>
                        <path d="M12,22 C13.0421053,22 13.8947368,21.1 13.8947368,20 L10.1052632,20 C10.1052632,21.1 10.9578947,22 12,22 Z M19.0186097,16 L19.0186097,10.5 C19.0186097,7.39999999 16.6588235,4.90000001 13.5882353,4.2 L13.5882353,3.49999999 C13.5882353,2.7 12.8470588,1.99999999 12,1.99999999 C11.1529412,1.99999999 10.4117647,2.7 10.4117647,3.49999999 L10.4117647,4.2 C7.34117649,4.90000001 4.99173332,7.39999999 4.9917333,10.5 L4.9917333,16 L3,18 L3,19 L21,19 L21,18 L19.0186097,16 Z M17.0059916,17 L6.97535631,17 L6.97535631,10.5 C6.97535631,7.99999999 9.10526316,6 12,6 C14.8947369,6 17.0059916,7.99999999 17.0059916,10.5 L17.0059916,17 Z" id="Fill" fill="#BF1E2E"></path>
                    </g>
                </g>
            </g>
        </g>
    </g>
</svg>