<?xml version="1.0" encoding="UTF-8"?>
<svg width="33px" height="30px" viewBox="0 0 33 30" version="1.1" xmlns="http://www.w3.org/2000/svg" xmlns:xlink="http://www.w3.org/1999/xlink">
    <!-- Generator: Sketch 51.3 (57544) - http://www.bohemiancoding.com/sketch -->
    <title></title>
    <desc>Created with Sketch.</desc>
    <defs></defs>
    <g id="Vendor" stroke="none" stroke-width="1" fill="none" fill-rule="evenodd">
        <g id="List-property-5" transform="translate(-123.000000, -258.000000)" fill="#BF1E2E" fill-rule="nonzero">
            <g id="last-step" transform="translate(20.000000, 109.000000)">
                <g id="add-photos" transform="translate(103.000000, 149.000000)">
                    <path d="M13.872,18.462 C13.872,17.6459959 14.075998,16.8810036 14.484,16.167 C14.892002,15.4529964 15.4416632,14.892002 16.133,14.484 C16.8243368,14.075998 17.5779959,13.872 18.394,13.872 C19.2100041,13.872 19.9693298,14.0816646 20.672,14.501 C21.3746702,14.9203354 21.9356646,15.4813298 22.355,16.184 C22.7743354,16.8866702 22.984,17.6459959 22.984,18.462 C22.984,19.2780041 22.780002,20.0316632 22.372,20.723 C21.963998,21.4143368 21.4030036,21.963998 20.689,22.372 C19.9749964,22.780002 19.2100041,22.984 18.394,22.984 C17.5779959,22.984 16.8243368,22.780002 16.133,22.372 C15.4416632,21.963998 14.892002,21.4143368 14.484,20.723 C14.075998,20.0316632 13.872,19.2780041 13.872,18.462 Z M18.394,25.5 C19.6860065,25.5 20.8759946,25.1883365 21.964,24.565 C23.0520054,23.9416636 23.9133302,23.0860054 24.548,21.998 C25.1826698,20.9099946 25.5,19.7256731 25.5,18.445 C25.5,17.1643269 25.1826698,15.9800054 24.548,14.892 C23.9133302,13.8039946 23.0520054,12.9426698 21.964,12.308 C20.8759946,11.6733302 19.6916731,11.356 18.411,11.356 C17.1303269,11.356 15.9460054,11.6733302 14.858,12.308 C13.7699946,12.9426698 12.9143364,13.8039946 12.291,14.892 C11.6676635,15.9800054 11.356,17.1699935 11.356,18.462 C11.356,19.7540065 11.6676635,20.9383279 12.291,22.015 C12.9143364,23.091672 13.7643279,23.9416636 14.841,24.565 C15.917672,25.1883365 17.1019935,25.5 18.394,25.5 Z M8.5,12.75 L8.5,8.5 L12.75,8.5 L12.75,4.25 L22.644,4.25 L25.228,7.106 L29.75,7.106 C30.5206705,7.106 31.1893305,7.3893305 31.756,7.956 C32.3226695,8.5226695 32.606,9.19132948 32.606,9.962 L32.606,26.962 C32.606,27.7326705 32.3226695,28.3899973 31.756,28.934 C31.1893305,29.4780027 30.5206705,29.75 29.75,29.75 L7.106,29.75 C6.33532948,29.75 5.6666695,29.4780027 5.1,28.934 C4.5333305,28.3899973 4.25,27.7326705 4.25,26.962 L4.25,12.75 L8.5,12.75 Z M4.25,4.25 L4.25,0 L7.106,0 L7.106,4.25 L11.356,4.25 L11.356,7.106 L7.106,7.106 L7.106,11.356 L4.25,11.356 L4.25,7.106 L-1.13686838e-13,7.106 L-1.13686838e-13,4.25 L4.25,4.25 Z" id="" transform="translate(16.303000, 14.875000) scale(-1, 1) translate(-16.303000, -14.875000) "></path>
                </g>
            </g>
        </g>
    </g>
</svg>