<?xml version="1.0" encoding="UTF-8"?>
<svg width="33px" height="24px" viewBox="0 0 33 24" version="1.1" xmlns="http://www.w3.org/2000/svg" xmlns:xlink="http://www.w3.org/1999/xlink">
    <!-- Generator: Sketch 51.3 (57544) - http://www.bohemiancoding.com/sketch -->
    <title>garage</title>
    <desc>Created with Sketch.</desc>
    <defs></defs>
    <g id="Vendor" stroke="none" stroke-width="1" fill="none" fill-rule="evenodd">
        <g id="Listing-Detail" transform="translate(-286.000000, -536.000000)" fill="#000000" fill-rule="nonzero">
            <g id="property-details" transform="translate(19.000000, 415.000000)">
                <g id="key-details" transform="translate(1.000000, 118.000000)">
                    <g id="garage" transform="translate(266.000000, 3.000000)">
                        <path d="M10.4775,19.7314286 C11.7426486,19.7807143 12.6898378,18.8575714 12.8307568,17.7081429 C12.8427973,17.6592857 12.8503784,17.6074286 12.8472568,17.5487143 C12.8517162,17.4685714 12.8392297,17.3982857 12.8160405,17.337 C12.6572838,16.2475714 11.7796622,15.3612857 10.5711486,15.3612857 C9.33454054,15.3612857 8.29504054,16.3611429 8.29504054,17.5487143 C8.29459459,18.705 9.27745946,19.6847143 10.4775,19.7314286 Z M11.7323919,17.5487143 C11.6521216,18.9788571 9.40990541,18.9908571 9.40990541,17.5487143 C9.40945946,16.1052857 11.6521216,16.1181429 11.7323919,17.5487143 Z" id="Shape"></path>
                        <path d="M22.4895,19.7314286 C23.7546486,19.7807143 24.7018378,18.8575714 24.8427568,17.7081429 C24.8547973,17.6592857 24.8623784,17.6074286 24.8592568,17.5487143 C24.8637162,17.4685714 24.8512297,17.3982857 24.8280405,17.337 C24.6692838,16.2475714 23.7916622,15.3612857 22.5831486,15.3612857 C21.3465405,15.3612857 20.3070405,16.3611429 20.3070405,17.5487143 C20.3070405,18.705 21.2894595,19.6847143 22.4895,19.7314286 Z M23.7443919,17.5487143 C23.6641216,18.9788571 21.4219054,18.9908571 21.4219054,17.5487143 C21.4219054,16.1052857 23.6645676,16.1181429 23.7443919,17.5487143 Z" id="Shape"></path>
                        <path d="M32.4501486,9.036 C28.0277027,6.45685714 23.6057027,3.87771429 19.1832568,1.29857143 C18.6066486,0.962142857 18.0015,0.514285714 17.3379324,0.351428571 C16.2542838,0.0852857143 15.3927162,0.473142857 14.5128649,0.986571429 C12.0664054,2.41328571 9.62039189,3.84 7.17393243,5.26671429 C5.01956757,6.52328571 2.8652027,7.77985714 0.710837838,9.036 C0.0981081081,9.39342857 0.65777027,10.32 1.27362162,9.96128571 C5.57967568,7.44985714 9.88572973,4.93885714 14.1913378,2.42742857 C14.6872297,2.13814286 15.1862432,1.77214286 15.7146892,1.539 C16.8126081,1.05428571 17.5395,1.59342857 18.4095405,2.10085714 C20.8733919,3.53785714 23.3372432,4.97485714 25.8015405,6.41185714 C27.8301486,7.59514286 29.8587568,8.778 31.8878108,9.96128571 C32.5023243,10.32 33.0633243,9.39385714 32.4501486,9.036 Z" id="Path"></path>
                        <path d="M29.7445946,22.8184286 C28.4031892,22.8184286 27.0617838,22.8184286 25.7203784,22.8184286 C25.7756757,22.752 25.8274054,22.6825714 25.8697703,22.6067143 C26.1137027,22.17 26.0361081,21.6261429 26.0334324,21.1457143 C26.7580946,20.8898571 27.2794054,20.2255714 27.2794054,19.4412857 L27.2794054,15.6565714 C27.2794054,14.8487143 26.7255405,14.1698571 25.9660946,13.932 L23.966473,8.88728571 C23.6226486,8.02071429 22.5974189,7.34142857 21.6319459,7.34142857 L11.5290405,7.34142857 C10.5635676,7.34142857 9.53789189,8.02028571 9.19406757,8.88728571 L7.19489189,13.932 C6.43544595,14.1698571 5.88158108,14.8482857 5.88158108,15.6565714 L5.88158108,19.4412857 C5.88158108,20.2427143 6.42608108,20.9168571 7.17527027,21.1598571 C7.17081081,21.6368571 7.09767568,22.1742857 7.33937838,22.6067143 C7.38174324,22.6825714 7.43347297,22.752 7.48877027,22.8184286 C7.3202027,22.8184286 7.15118919,22.8184286 6.98262162,22.8184286 C5.90967568,22.8184286 4.83628378,22.8184286 3.76289189,22.8184286 C3.04536486,22.8184286 3.04447297,23.8898571 3.76289189,23.8898571 C11.3502162,23.8898571 18.9375405,23.8898571 26.5248649,23.8898571 C27.5978108,23.8898571 28.6712027,23.8898571 29.7445946,23.8898571 C30.4616757,23.8898571 30.4630135,22.8184286 29.7445946,22.8184286 Z M24.0770676,21.2627143 L24.9243649,21.2627143 C24.9515676,21.6711429 25.0429865,22.3075714 24.5007162,22.3075714 C23.9593378,22.3075714 24.0498649,21.6702857 24.0770676,21.2627143 Z M10.2357973,9.26871429 C10.4168514,8.81271429 11.0215541,8.41242857 11.5290405,8.41242857 L21.6319459,8.41242857 C22.1398784,8.41242857 22.7441351,8.81271429 22.9247432,9.26871429 L24.7348378,13.8347143 L23.7546486,13.8347143 L9.40009459,13.8347143 L8.42614865,13.8347143 L10.2357973,9.26871429 Z M22.5746757,13.8347143 L10.5800676,13.8347143 L22.5746757,13.8347143 Z M6.99644595,15.6561429 C6.99644595,15.2425714 7.34651351,14.9061429 7.77685135,14.9061429 L25.3841351,14.9061429 C25.814473,14.9061429 26.1645405,15.2425714 26.1645405,15.6561429 L26.1645405,19.4408571 C26.1645405,19.8544286 25.814473,20.1908571 25.3841351,20.1908571 L7.77685135,20.1908571 C7.34651351,20.1908571 6.99644595,19.8544286 6.99644595,19.4408571 L6.99644595,15.6561429 Z M8.70843243,22.3075714 C8.16705405,22.3075714 8.25758108,21.6707143 8.28478378,21.2627143 L9.13208108,21.2627143 C9.15972973,21.6711429 9.2507027,22.3075714 8.70843243,22.3075714 Z M10.0774865,22.6067143 C10.3017973,22.2047143 10.254527,21.7127143 10.2433784,21.2627143 L22.9662162,21.2627143 C22.9550676,21.7131429 22.9073514,22.2051429 23.1321081,22.6067143 C23.174473,22.6825714 23.2262027,22.752 23.2815,22.8184286 C18.8305135,22.8184286 14.379527,22.8184286 9.92854054,22.8184286 C9.98339189,22.752 10.0351216,22.6825714 10.0774865,22.6067143 Z" id="Shape"></path>
                    </g>
                </g>
            </g>
        </g>
    </g>
</svg>