<?xml version="1.0" encoding="UTF-8"?>
<svg width="20px" height="20px" viewBox="0 0 20 20" version="1.1" xmlns="http://www.w3.org/2000/svg" xmlns:xlink="http://www.w3.org/1999/xlink">
    <!-- Generator: Sketch 51.3 (57544) - http://www.bohemiancoding.com/sketch -->
    <title>ic_add_more</title>
    <desc>Created with Sketch.</desc>
    <defs></defs>
    <g id="ðŸ‘-Pallas-UI-Kit" stroke="none" stroke-width="1" fill="none" fill-rule="evenodd">
        <g id="Chat-Window" transform="translate(-18.000000, -483.000000)">
            <g id="Content" transform="translate(0.000000, 41.000000)">
                <g id="Action" transform="translate(0.000000, 424.000000)">
                    <g id="Icons/24pt/ic_add_more" transform="translate(16.000000, 16.000000)">
                        <g id="ic_add_more">
                            <rect id="Rectangle" fill="#000000" opacity="0" x="0" y="0" width="24" height="24"></rect>
                            <path d="M15.9975267,11 C16.5511774,11 17,11.4438648 17,12 C17,12.5522847 16.544239,13 15.9975267,13 L13,13 L13,15.9975267 C13,16.5511774 12.5561352,17 12,17 C11.4477153,17 11,16.544239 11,15.9975267 L11,13 L8.00247329,13 C7.44882258,13 7,12.5561352 7,12 C7,11.4477153 7.45576096,11 8.00247329,11 L11,11 L11,8.00247329 C11,7.44882258 11.4438648,7 12,7 C12.5522847,7 13,7.45576096 13,8.00247329 L13,11 L15.9975267,11 Z M6.34314575,17.6568542 C9.46734008,20.7810486 14.5326599,20.7810486 17.6568542,17.6568542 C20.7810486,14.5326599 20.7810486,9.46734008 17.6568542,6.34314575 C14.5326599,3.21895142 9.46734008,3.21895142 6.34314575,6.34314575 C3.21895142,9.46734008 3.21895142,14.5326599 6.34314575,17.6568542 Z M4.92893219,19.0710678 C1.02368927,15.1658249 1.02368927,8.83417511 4.92893219,4.92893219 C8.83417511,1.02368927 15.1658249,1.02368927 19.0710678,4.92893219 C22.9763107,8.83417511 22.9763107,15.1658249 19.0710678,19.0710678 C15.1658249,22.9763107 8.83417511,22.9763107 4.92893219,19.0710678 Z" id="Fill" fill="#272755"></path>
                        </g>
                    </g>
                </g>
            </g>
        </g>
    </g>
</svg>