<?xml version="1.0" encoding="UTF-8"?>
<svg width="23px" height="23px" viewBox="0 0 23 23" version="1.1" xmlns="http://www.w3.org/2000/svg" xmlns:xlink="http://www.w3.org/1999/xlink">
    <!-- Generator: Sketch 51.3 (57544) - http://www.bohemiancoding.com/sketch -->
    <title>ic_comment</title>
    <desc>Created with Sketch.</desc>
    <defs></defs>
    <g id="Vendor" stroke="none" stroke-width="1" fill="none" fill-rule="evenodd">
        <g id="Rental-Marketplace" transform="translate(-260.000000, -1067.000000)" fill="#000000">
            <g id="ic_comment" transform="translate(258.000000, 1065.000000)">
                <rect id="Rectangle" opacity="0" x="0" y="0" width="27" height="27"></rect>
                <path d="M5.54048437,5.54645311 C7.66688977,3.42020292 10.4897898,2.25 13.4946118,2.25 C16.4994339,2.25 19.3223339,3.42020292 21.4487393,5.54645311 C23.5769207,7.6744791 24.75,10.4978912 24.75,13.5 C24.75,16.5046027 23.5797117,19.3272967 21.4533063,21.4535469 C19.3250377,23.5816601 16.4605115,24.75 13.4900449,24.75 C11.7358457,24.75 10.0028629,24.3407896 8.42623726,23.5416716 C7.17833359,24.3753198 5.86991861,24.727167 4.59366617,24.727167 C4.2581715,24.727167 3.95028358,24.7014094 3.67017567,24.6578401 C3.03889309,24.5592094 2.54891347,24.0654822 2.45013051,23.4333174 C2.35135432,22.8011959 2.67384058,22.1847231 3.24878796,21.9005755 C3.79912659,21.6299868 4.26579436,21.1147961 4.6421932,20.4390939 C1.14861182,15.996958 1.50983508,9.5768082 5.54048437,5.54645311 Z M8.92824048,21.2763496 C12.46557,23.3547181 16.9626936,22.7780406 19.867675,19.8732485 C23.3840543,16.3570982 23.3827221,10.6422003 19.8629664,7.12697609 C16.3517488,3.61168459 10.6319622,3.61168459 7.11624894,7.12716883 C3.75216669,10.4910319 3.58668099,15.9136189 6.74096939,19.477093 C6.88397811,19.6426712 6.97171684,19.8480462 6.98492497,20.0032073 C7.04031071,20.2247359 7.02239798,20.4575863 6.92912514,20.6827246 C6.66661889,21.2811999 6.34809182,21.8327895 5.96606282,22.3131721 C6.52329164,22.1523573 7.07453451,21.8792502 7.5978347,21.4763068 C7.62553897,21.4486043 7.65661886,21.4227712 7.69000308,21.3999501 C8.02976965,21.0954521 8.52970164,21.0401904 8.92824048,21.2763496 Z M9,14.625 C8.37867966,14.625 7.875,14.1213203 7.875,13.5 C7.875,12.8786797 8.37867966,12.375 9,12.375 C9.62132034,12.375 10.125,12.8786797 10.125,13.5 C10.125,14.1213203 9.62132034,14.625 9,14.625 Z M13.5,14.625 C12.8786797,14.625 12.375,14.1213203 12.375,13.5 C12.375,12.8786797 12.8786797,12.375 13.5,12.375 C14.1213203,12.375 14.625,12.8786797 14.625,13.5 C14.625,14.1213203 14.1213203,14.625 13.5,14.625 Z M18,14.625 C17.3786797,14.625 16.875,14.1213203 16.875,13.5 C16.875,12.8786797 17.3786797,12.375 18,12.375 C18.6213203,12.375 19.125,12.8786797 19.125,13.5 C19.125,14.1213203 18.6213203,14.625 18,14.625 Z" id="Fill"></path>
            </g>
        </g>
    </g>
</svg>