<?xml version="1.0" encoding="UTF-8"?>
<svg width="118px" height="46px" viewBox="0 0 118 46" version="1.1" xmlns="http://www.w3.org/2000/svg" xmlns:xlink="http://www.w3.org/1999/xlink">
    <!-- Generator: Sketch 51.3 (57544) - http://www.bohemiancoding.com/sketch -->
    <title>Group 3</title>
    <desc>Created with Sketch.</desc>
    <defs></defs>
    <g id="Vendor" stroke="none" stroke-width="1" fill="none" fill-rule="evenodd">
        <g id="To-Do" transform="translate(-94.000000, -732.000000)">
            <g id="Group-4" transform="translate(24.000000, 732.000000)">
                <g id="Group-3" transform="translate(70.000000, 0.000000)">
                    <g id="Group-5">
                        <g id="Group-2">
                            <rect id="Rectangle" fill="#BF1E2E" x="0" y="0" width="118" height="46" rx="23"></rect>
                            <text id="Inbox" font-family="Helvetica" font-size="14" font-weight="normal" fill="#FFFFFF">
                                <tspan x="50" y="28"> Inbox</tspan>
                            </text>
                        </g>
                        <path d="M23.5404844,15.5464531 C25.6668898,13.4202029 28.4897898,12.25 31.4946118,12.25 C34.4994339,12.25 37.3223339,13.4202029 39.4487393,15.5464531 C41.5769207,17.6744791 42.75,20.4978912 42.75,23.5 C42.75,26.5046027 41.5797117,29.3272967 39.4533063,31.4535469 C37.3250377,33.5816601 34.4605115,34.75 31.4900449,34.75 C29.7358457,34.75 28.0028629,34.3407896 26.4262373,33.5416716 C25.1783336,34.3753198 23.8699186,34.727167 22.5936662,34.727167 C22.2581715,34.727167 21.9502836,34.7014094 21.6701757,34.6578401 C21.0388931,34.5592094 20.5489135,34.0654822 20.4501305,33.4333174 C20.3513543,32.8011959 20.6738406,32.1847231 21.248788,31.9005755 C21.7991266,31.6299868 22.2657944,31.1147961 22.6421932,30.4390939 C19.1486118,25.996958 19.5098351,19.5768082 23.5404844,15.5464531 Z M26.9282405,31.2763496 C30.46557,33.3547181 34.9626936,32.7780406 37.867675,29.8732485 C41.3840543,26.3570982 41.3827221,20.6422003 37.8629664,17.1269761 C34.3517488,13.6116846 28.6319622,13.6116846 25.1162489,17.1271688 C21.7521667,20.4910319 21.586681,25.9136189 24.7409694,29.477093 C24.8839781,29.6426712 24.9717168,29.8480462 24.984925,30.0032073 C25.0403107,30.2247359 25.022398,30.4575863 24.9291251,30.6827246 C24.6666189,31.2811999 24.3480918,31.8327895 23.9660628,32.3131721 C24.5232916,32.1523573 25.0745345,31.8792502 25.5978347,31.4763068 C25.625539,31.4486043 25.6566189,31.4227712 25.6900031,31.3999501 C26.0297697,31.0954521 26.5297016,31.0401904 26.9282405,31.2763496 Z M27,24.625 C26.3786797,24.625 25.875,24.1213203 25.875,23.5 C25.875,22.8786797 26.3786797,22.375 27,22.375 C27.6213203,22.375 28.125,22.8786797 28.125,23.5 C28.125,24.1213203 27.6213203,24.625 27,24.625 Z M31.5,24.625 C30.8786797,24.625 30.375,24.1213203 30.375,23.5 C30.375,22.8786797 30.8786797,22.375 31.5,22.375 C32.1213203,22.375 32.625,22.8786797 32.625,23.5 C32.625,24.1213203 32.1213203,24.625 31.5,24.625 Z M36,24.625 C35.3786797,24.625 34.875,24.1213203 34.875,23.5 C34.875,22.8786797 35.3786797,22.375 36,22.375 C36.6213203,22.375 37.125,22.8786797 37.125,23.5 C37.125,24.1213203 36.6213203,24.625 36,24.625 Z" id="Fill" fill="#FEFEFE"></path>
                    </g>
                </g>
            </g>
        </g>
    </g>
</svg>