<?xml version="1.0" encoding="UTF-8"?>
<svg width="20px" height="20px" viewBox="0 0 20 20" version="1.1" xmlns="http://www.w3.org/2000/svg" xmlns:xlink="http://www.w3.org/1999/xlink">
    <!-- Generator: Sketch 51.3 (57544) - http://www.bohemiancoding.com/sketch -->
    <title>L.Icon</title>
    <desc>Created with Sketch.</desc>
    <defs></defs>
    <g id="Vendor" stroke="none" stroke-width="1" fill="none" fill-rule="evenodd">
        <g id="Service-2" transform="translate(-26.000000, -322.000000)">
            <g id="time" transform="translate(24.000000, 294.000000)">
                <g id="Icons/24pt/ic_time" transform="translate(0.000000, 26.000000)">
                    <g id="ic_time">
                        <rect id="Rectangle" fill="#000000" opacity="0" x="0" y="0" width="24" height="24"></rect>
                        <path d="M12.0004151,2 C6.48573282,2 2,6.48687396 2,12.0004152 C2,17.5147867 6.48575654,22 12.0004151,22 C17.5142672,22 22,17.5148105 22,12.0004152 C22,6.48682651 17.5142672,2 12.0004151,2 Z M12.0004151,20.1612989 C7.49981085,20.1612989 3.83907337,16.5004561 3.83907337,12.0004389 C3.83907337,7.50035053 7.49983456,3.83953149 12.0004151,3.83953149 C16.499359,3.83953149 20.1601202,7.50037425 20.1601202,12.0004389 C20.1601202,16.5005035 16.499359,20.1612989 12.0004151,20.1612989 Z M16.7438003,14.4776073 L12.9195485,11.9954568 L12.9195485,6.97583091 C12.9195485,6.46787083 12.5091499,6.05566185 12.0004388,6.05566185 C11.4917276,6.05566185 11.0805226,6.46787083 11.0805226,6.97583091 L11.0805226,12.9940583 L15.7413206,16.0205381 C15.8973873,16.1213187 16.0707922,16.169218 16.2417303,16.169218 C16.5431905,16.169218 16.838816,16.0221513 17.0138812,15.7504374 C17.2913621,15.3233771 17.1691178,14.7542796 16.743824,14.4775835 L16.7438003,14.4776073 Z" id="Fill" fill="#6D7278"></path>
                    </g>
                </g>
            </g>
        </g>
    </g>
</svg>