<?xml version="1.0" encoding="UTF-8"?>
<svg width="24px" height="22px" viewBox="0 0 24 22" version="1.1" xmlns="http://www.w3.org/2000/svg" xmlns:xlink="http://www.w3.org/1999/xlink">
    <!-- Generator: Sketch 51.3 (57544) - http://www.bohemiancoding.com/sketch -->
    <title>drops</title>
    <desc>Created with Sketch.</desc>
    <defs></defs>
    <g id="Vendor" stroke="none" stroke-width="1" fill="none" fill-rule="evenodd">
        <g id="Bills" transform="translate(-216.000000, -245.000000)" fill="#3EC9DC">
            <g id="Group-8-Copy-3" transform="translate(200.000000, 229.000000)">
                <g id="Group-6-Copy-2">
                    <g id="drops" transform="translate(16.000000, 16.000000)">
                        <path d="M11.3,7.3 C10.8,7.8 6,12.7 6,16 C6,19.7 9.1,22 12,22 C14.9,22 18,19.8 18,16 C18,12.6 13.2,7.8 12.7,7.2 C12.3,6.9 11.7,6.9 11.3,7.3 Z" id="Path"></path>
                        <path d="M20.7,0.3 C20.3,-0.1 19.6,-0.1 19.3,0.3 C18.7,0.9 16,3.8 16,6 C16,8.5 18,10 20,10 C22,10 24,8.5 24,6 C24,3.8 21.3,0.9 20.7,0.3 Z" id="Path"></path>
                        <path d="M8,6 C8,3.8 5.3,0.9 4.7,0.4 C4.3,3.88578059e-16 3.6,3.88578059e-16 3.3,0.4 C2.7,0.9 0,3.8 0,6 C0,8.5 2,10 4,10 C6,10 8,8.5 8,6 Z" id="Path"></path>
                    </g>
                </g>
            </g>
        </g>
    </g>
</svg>