<?xml version="1.0" encoding="UTF-8"?>
<svg width="26px" height="26px" viewBox="0 0 26 26" version="1.1" xmlns="http://www.w3.org/2000/svg" xmlns:xlink="http://www.w3.org/1999/xlink">
    <!-- Generator: Sketch 51.3 (57544) - http://www.bohemiancoding.com/sketch -->
    <title>noun_Resize_1635105 Copy 2</title>
    <desc>Created with Sketch.</desc>
    <defs>
        <filter x="-50.0%" y="-37.5%" width="200.0%" height="206.2%" filterUnits="objectBoundingBox" id="filter-1">
            <feOffset dx="0" dy="2" in="SourceAlpha" result="shadowOffsetOuter1"></feOffset>
            <feGaussianBlur stdDeviation="2" in="shadowOffsetOuter1" result="shadowBlurOuter1"></feGaussianBlur>
            <feColorMatrix values="0 0 0 0 0.402875213   0 0 0 0 0.402875213   0 0 0 0 0.402875213  0 0 0 0.5 0" type="matrix" in="shadowBlurOuter1" result="shadowMatrixOuter1"></feColorMatrix>
            <feMerge>
                <feMergeNode in="shadowMatrixOuter1"></feMergeNode>
                <feMergeNode in="SourceGraphic"></feMergeNode>
            </feMerge>
        </filter>
    </defs>
    <g id="Vendor" stroke="none" stroke-width="1" fill="none" fill-rule="evenodd">
        <g id="List-property-6" transform="translate(-327.000000, -657.000000)" fill="#000000" fill-rule="nonzero" stroke="#FFFFFF" stroke-width="0.8">
            <g id="noun_Resize_1635105-Copy-2" filter="url(#filter-1)" transform="translate(332.000000, 660.000000)">
                <g id="Group" transform="translate(0.000000, 0.127564)">
                    <path d="M0.367085367,0.0733400025 C0.270259925,0.0915833678 0.200793888,0.176008762 0.202531646,0.273330003 L0.202531646,4.273098 C0.201498686,4.34522101 0.239872737,4.41230622 0.302959623,4.44866539 C0.366046509,4.48502456 0.444072174,4.48502456 0.50715906,4.44866539 C0.570245946,4.41230622 0.608619998,4.34522101 0.607587038,4.273098 L0.607587038,0.754552003 L5.12015737,5.210542 C5.17098817,5.26210225 5.24584552,5.28291185 5.31645114,5.26510972 C5.38705676,5.2473076 5.44264753,5.19360749 5.46222335,5.12429529 C5.48179917,5.05498308 5.46237591,4.98062473 5.41129094,4.92931 L0.898720608,0.473318003 L4.45561337,0.473318003 C4.52864204,0.474322473 4.59656286,0.436425996 4.633374,0.374136301 C4.67018514,0.311846607 4.67018514,0.234811398 4.633374,0.172521704 C4.59656286,0.110232009 4.52864204,0.0723355321 4.45561337,0.0733400025 L0.405059241,0.0733400025 C0.392429213,0.0721657316 0.379715395,0.0721657316 0.367085367,0.0733400025 Z M11.7086364,0.07334 C11.63628,0.0800383473 11.5730388,0.124345578 11.5427352,0.189571581 C11.5124316,0.254797585 11.5196694,0.331032976 11.5617222,0.389560612 C11.603775,0.448088248 11.674254,0.480016385 11.7466104,0.473318 L15.303503,0.473318 L10.7909329,4.92931 C10.7398479,4.98062472 10.7204246,5.05498308 10.7400004,5.12429528 C10.7595763,5.19360749 10.815167,5.24730759 10.8857727,5.26510972 C10.9563783,5.28291185 11.0312356,5.26210225 11.0820664,5.210542 L15.5946366,0.754552 L15.5946366,4.273098 C15.5936036,4.34522101 15.6319776,4.41230622 15.6950645,4.44866538 C15.7581514,4.48502455 15.8361771,4.48502455 15.899264,4.44866538 C15.9623509,4.41230622 16.0007249,4.34522101 15.9996919,4.273098 L15.9996919,0.27333 C15.9996817,0.162883445 15.9090133,0.0733510985 15.7971644,0.07334 L11.7466104,0.07334 C11.7339803,0.0721657165 11.7212664,0.0721657165 11.7086364,0.07334 Z M5.25939504,10.46648 C5.20649426,10.4685439 5.15651445,10.4909784 5.12015737,10.52898 L0.607587038,14.98498 L0.607587038,11.47268 C0.609913874,11.4139345 0.58594887,11.3571532 0.542061185,11.3174268 C0.4981735,11.2777005 0.438808436,11.2590529 0.379743392,11.26644 C0.275417393,11.2793484 0.198439973,11.3689351 0.202531646,11.47268 L0.202531646,15.47246 C0.202547526,15.5829026 0.293214276,15.6724289 0.405059241,15.67244 L4.45561337,15.67244 C4.52862484,15.673418 4.59651807,15.6355155 4.63331271,15.5732364 C4.67010735,15.5109572 4.67010735,15.4339428 4.63331271,15.3716636 C4.59651807,15.3093845 4.52862484,15.271482 4.45561337,15.27246 L0.892391696,15.27246 L5.41129094,10.81022 C5.47228663,10.7522008 5.49028658,10.6628329 5.4564153,10.5861823 C5.42254401,10.5095317 5.34395332,10.4617829 5.25939504,10.46648 Z M10.9111836,10.46648 C10.8323443,10.4740528 10.7652101,10.5263124 10.7393467,10.6002437 C10.7134833,10.6741751 10.7336372,10.7562098 10.7909329,10.81022 L15.3098321,15.27246 L11.7466104,15.27246 C11.673599,15.271482 11.6057057,15.3093845 11.5689111,15.3716636 C11.5321164,15.4339428 11.5321164,15.5109572 11.5689111,15.5732364 C11.6057057,15.6355155 11.673599,15.673418 11.7466104,15.67244 L15.7971644,15.67244 C15.9090093,15.6724289 15.9996761,15.5829026 15.9996919,15.47246 L15.9996919,11.47268 C16.0020188,11.4139345 15.9780538,11.3571532 15.9341661,11.3174268 C15.8902784,11.2777005 15.8309133,11.2590529 15.7718483,11.26644 C15.6675223,11.2793484 15.5905449,11.3689351 15.5946366,11.47268 L15.5946366,14.98498 L11.0820664,10.52898 C11.0383482,10.4825924 10.9749549,10.4594064 10.9111836,10.46648 Z" id="Shape"></path>
                </g>
            </g>
        </g>
    </g>
</svg>