<?xml version="1.0" encoding="UTF-8"?>
<svg width="26px" height="24px" viewBox="0 0 26 24" version="1.1" xmlns="http://www.w3.org/2000/svg" xmlns:xlink="http://www.w3.org/1999/xlink">
    <!-- Generator: Sketch 51.3 (57544) - http://www.bohemiancoding.com/sketch -->
    <title>favorite_border - material</title>
    <desc>Created with Sketch.</desc>
    <defs></defs>
    <g id="Page-1" stroke="none" stroke-width="1" fill="none" fill-rule="evenodd" fill-opacity="0.821699502">
        <g id="Listing-Detail" transform="translate(-314.000000, -390.000000)" fill="#BF1E2E" stroke="#FFFFFF" stroke-width="0.99000001">
            <g id="mark-favorite" transform="translate(299.000000, 373.000000)">
                <path d="M33.4230769,18 C34.6346214,18 35.7451873,18.2879552 36.7548077,18.8638743 C37.7644281,19.4397935 38.5576894,20.2316704 39.1346154,21.2395288 C39.7115413,22.2473872 40,23.3560149 40,24.565445 C40,26.0052428 39.5769273,27.464216 38.7307692,28.9424084 C37.9807655,30.2286277 36.7884697,31.6971994 35.1538462,33.3481675 C34.173072,34.3464273 32.3750131,36.0357647 29.7596154,38.4162304 L28,40 L26.2692308,38.473822 C23.6922948,36.1317509 21.8846206,34.4328151 20.8461538,33.3769634 C19.2115303,31.7259952 18.0288498,30.2574235 17.2980769,28.9712042 C16.432688,27.4930118 16,26.0244401 16,24.565445 C16,23.3560149 16.2932663,22.2473872 16.8798077,21.2395288 C17.4663491,20.2316704 18.2596104,19.4397935 19.2596154,18.8638743 C20.2596204,18.2879552 21.3749938,18 22.6057692,18 C23.6250051,18 24.6153798,18.2303642 25.5769231,18.6910995 C26.5384663,19.1518348 27.3461506,19.7661393 28,20.5340314 C28.6538494,19.7661393 29.4615337,19.1518348 30.4230769,18.6910995 C31.3846202,18.2303642 32.3846102,18 33.4230769,18 Z" id="favorite_border---material"></path>
            </g>
        </g>
    </g>
</svg>
