<?xml version="1.0" encoding="UTF-8"?>
<svg width="24px" height="24px" viewBox="0 0 24 24" version="1.1" xmlns="http://www.w3.org/2000/svg" xmlns:xlink="http://www.w3.org/1999/xlink">
    <!-- Generator: Sketch 51.3 (57544) - http://www.bohemiancoding.com/sketch -->
    <title>info</title>
    <desc>Created with Sketch.</desc>
    <defs></defs>
    <g id="Page-1" stroke="none" stroke-width="1" fill="none" fill-rule="evenodd">
        <g id="Gold-Coins" transform="translate(-221.000000, -62.000000)" fill="#222222" fill-rule="nonzero" stroke="#222222" stroke-width="0.5">
            <g id="info" transform="translate(222.000000, 63.000000)">
                <path d="M11.9166107,5.5 C11.9166107,6.00622559 11.5062256,6.41661071 11,6.41661071 C10.4937744,6.41661071 10.0833893,6.00622559 10.0833893,5.5 C10.0833893,4.99377441 10.4937744,4.58338929 11,4.58338929 C11.5062256,4.58338929 11.9166107,4.99377441 11.9166107,5.5 Z" id="Path"></path>
                <path d="M11,17.4166107 C10.6204987,17.4166107 10.3125,17.108612 10.3125,16.7291107 L10.3125,9.625 L9.39588929,9.625 C9.01638796,9.625 8.70838929,9.31700133 8.70838929,8.9375 C8.70838929,8.55799867 9.01638796,8.25 9.39588929,8.25 L11,8.25 C11.3795013,8.25 11.6875,8.55799867 11.6875,8.9375 L11.6875,16.7291107 C11.6875,17.108612 11.3795013,17.4166107 11,17.4166107 Z" id="Path"></path>
                <path d="M11,22 C4.93435671,22 0,17.0656433 0,11 C0,4.93435671 4.93435671,0 11,0 C17.0656433,0 22,4.93435671 22,11 C22,17.0656433 17.0656433,22 11,22 Z M11,1.375 C5.69252015,1.375 1.375,5.69252015 1.375,11 C1.375,16.3074798 5.69252015,20.625 11,20.625 C16.3074798,20.625 20.625,16.3074798 20.625,11 C20.625,5.69252015 16.3074798,1.375 11,1.375 Z" id="Shape"></path>
                <path d="M13.0625,17.4166107 L8.9375,17.4166107 C8.55799867,17.4166107 8.25,17.108612 8.25,16.7291107 C8.25,16.3496094 8.55799867,16.0416107 8.9375,16.0416107 L13.0625,16.0416107 C13.4420013,16.0416107 13.75,16.3496094 13.75,16.7291107 C13.75,17.108612 13.4420013,17.4166107 13.0625,17.4166107 Z" id="Path"></path>
            </g>
        </g>
    </g>
</svg>