<?xml version="1.0" encoding="UTF-8"?>
<svg width="17px" height="20px" viewBox="0 0 17 20" version="1.1" xmlns="http://www.w3.org/2000/svg" xmlns:xlink="http://www.w3.org/1999/xlink">
    <!-- Generator: Sketch 51.3 (57544) - http://www.bohemiancoding.com/sketch -->
    <title>place (1)</title>
    <desc>Created with Sketch.</desc>
    <defs></defs>
    <g id="Page-1" stroke="none" stroke-width="1" fill="none" fill-rule="evenodd">
        <g id="Slide01_Rental-Marketplace" transform="translate(-325.000000, -78.000000)" fill="#9393AA" fill-rule="nonzero">
            <g id="in_search" transform="translate(25.000000, 64.000000)">
                <g id="place-(1)" transform="translate(300.000000, 14.000000)">
                    <path d="M14.7637109,3.47738281 C13.236875,1.26761719 10.8170703,0 8.12523437,0 C5.43339844,0 3.01359375,1.26761719 1.48675781,3.47738281 C-0.032578125,5.67597656 -0.383398437,8.45945312 0.546445313,10.9186328 C0.79515625,11.5901953 1.19050781,12.2426562 1.71871094,12.8540625 L7.59285156,19.7538281 C7.72570313,19.91 7.92035156,20 8.12523438,20 C8.33011719,20 8.52476563,19.9100391 8.65761719,19.7538281 L14.5301172,12.8559375 C15.0606641,12.2410156 15.4555078,11.5892578 15.7021484,10.9230859 C16.6338672,8.45945312 16.2830469,5.67597656 14.7637109,3.47738281 Z M14.3926172,10.4333203 C14.2024219,10.9473047 13.8919141,11.4554687 13.4702344,11.9442578 C13.4690625,11.9454297 13.4678906,11.9466016 13.4669531,11.9480078 L8.12523437,18.2221484 L2.78023437,11.9440625 C2.35878906,11.4557031 2.04828125,10.9475781 1.85621094,10.4286719 C1.08722656,8.39488281 1.3790625,6.09347656 2.63710937,4.27273437 C3.89910156,2.44617188 5.89957031,1.39859375 8.12523437,1.39859375 C10.3508594,1.39859375 12.3510937,2.44613281 13.613125,4.27273437 C14.8714062,6.09347656 15.1634766,8.39488281 14.3926172,10.4333203 Z" id="Shape"></path>
                    <path d="M8.12523437,4.14917969 C5.96601562,4.14917969 4.20914062,5.90582031 4.20914062,8.06527344 C4.20914062,10.2247266 5.96578125,11.9813672 8.12523437,11.9813672 C10.2846875,11.9813672 12.0413281,10.2247266 12.0413281,8.06527344 C12.0413281,5.90605469 10.2844531,4.14917969 8.12523437,4.14917969 Z M8.12523437,10.5827344 C6.73710937,10.5827344 5.60773437,9.45335937 5.60773437,8.06523438 C5.60773437,6.67710938 6.73710938,5.54773438 8.12523437,5.54773438 C9.51335938,5.54773438 10.6427344,6.67710938 10.6427344,8.06523438 C10.6427344,9.45335937 9.51335938,10.5827344 8.12523437,10.5827344 Z" id="Shape"></path>
                </g>
            </g>
        </g>
    </g>
</svg>