<?xml version="1.0" encoding="UTF-8"?>
<svg width="146px" height="152px" viewBox="0 0 146 152" version="1.1" xmlns="http://www.w3.org/2000/svg" xmlns:xlink="http://www.w3.org/1999/xlink">
    <!-- Generator: Sketch 51.3 (57544) - http://www.bohemiancoding.com/sketch -->
    <title>img_no_application</title>
    <desc>Created with Sketch.</desc>
    <defs></defs>
    <g id="Vendor" stroke="none" stroke-width="1" fill="none" fill-rule="evenodd">
        <g id="Chat" transform="translate(-115.000000, -156.000000)">
            <g id="Content" transform="translate(24.000000, 152.000000)">
                <g id="img_no_application" transform="translate(84.000000, 0.000000)">
                    <g id="img" transform="translate(7.000000, 4.000000)">
                        <path d="M146,58.7671658 L86.4265926,5.46111671 C78.9887037,-1.82037224 67.0112963,-1.82037224 59.5734074,5.46111671 L0,58.7671658 L0,152 L146,152 L146,58.7671658 Z" id="Path" fill="#B6B6B6"></path>
                        <path d="M146,152 L85.0206667,104.855374 C77.5692593,99.7406391 67.7034444,99.7136484 60.2222963,104.782499 C39.2685926,118.982297 0,152 0,152 L146,152 Z" id="Path" fill="#BDBDBD"></path>
                        <path d="M94.2119153,63.3667143 C93.1611356,62.3054286 91.4626887,62.3054286 90.411909,63.3667143 L76.187416,77.7334286 L76.187416,32.7142857 C76.187416,31.2132857 74.9861411,30 73.5,30 C72.0138589,30 70.812584,31.2132857 70.812584,32.7142857 L70.812584,77.7334286 L56.588091,63.3667143 C55.5373113,62.3054286 53.8388644,62.3054286 52.7880847,63.3667143 C51.7373051,64.428 51.7373051,66.1434286 52.7880847,67.2047143 L71.5973095,86.202 C71.8445517,86.4544286 72.1428549,86.6525714 72.4734071,86.791 C72.8012718,86.9294286 73.1506359,87 73.5,87 C73.8493641,87 74.1987282,86.9294286 74.5265929,86.791 C74.8571451,86.6525714 75.1554483,86.4544286 75.4026905,86.202 L94.2119153,67.2047143 C95.2626949,66.1434286 95.2626949,64.428 94.2119153,63.3667143 Z" id="Path" fill="#FFFFFF"></path>
                        <path d="M63,103.294118 L62.5701701,103.294118 L0,60 L0,152 C0,152 39.5117022,118.898941 60.5924087,104.663294 C61.3677347,104.141059 62.1811469,103.708118 63,103.294118 Z" id="Path" fill="#C2C2C2"></path>
                        <path d="M83.2896519,103.294118 L82,103.294118 C82.853406,103.727059 83.6986325,104.187059 84.5029608,104.736353 L146,152 L146,60 L83.2896519,103.294118 Z" id="Path" fill="#C2C2C2"></path>
                    </g>
                </g>
            </g>
        </g>
    </g>
</svg>