<?xml version="1.0" encoding="UTF-8"?>
<svg width="24px" height="24px" viewBox="0 0 24 24" version="1.1" xmlns="http://www.w3.org/2000/svg" xmlns:xlink="http://www.w3.org/1999/xlink">
    <!-- Generator: Sketch 51.3 (57544) - http://www.bohemiancoding.com/sketch -->
    <title>phone</title>
    <desc>Created with Sketch.</desc>
    <defs></defs>
    <g id="Vendor" stroke="none" stroke-width="1" fill="none" fill-rule="evenodd">
        <g id="Bills" transform="translate(-216.000000, -431.000000)" fill="#E6344A" fill-rule="nonzero">
            <g id="Group-8-Copy-4" transform="translate(200.000000, 415.000000)">
                <g id="Group-6-Copy-2">
                    <g id="phone" transform="translate(16.000000, 16.000000)">
                        <path d="M15.8421818,14.6956364 L13.296,17.2047273 L6.79527273,10.704 L9.30436364,8.15781818 C9.61471101,7.84211864 9.70349806,7.37016809 9.52909091,6.96327273 L6.91636364,0.865090909 C6.70289215,0.368058697 6.15743198,0.102524041 5.63454545,0.241090909 L0.834545455,1.50872727 C0.340579986,1.63653621 0.00118770485,2.08966342 0.0174545455,2.59963636 C0.322732503,8.17842377 2.64233301,13.4568329 6.54545455,17.4545455 C10.5444442,21.3582315 15.8245569,23.6775116 21.4047273,23.9814545 C21.9147002,23.9977214 22.3678274,23.6583291 22.4956364,23.1643636 L23.7632727,18.3643636 C23.9018396,17.8414771 23.6363049,17.2960169 23.1392727,17.0825455 L17.0410909,14.4698182 C16.6327808,14.2937099 16.1584453,14.3830525 15.8421818,14.6956364 Z" id="Path"></path>
                    </g>
                </g>
            </g>
        </g>
    </g>
</svg>