<?xml version="1.0" encoding="UTF-8"?>
<svg width="160px" height="160px" viewBox="0 0 160 160" version="1.1" xmlns="http://www.w3.org/2000/svg" xmlns:xlink="http://www.w3.org/1999/xlink">
    <!-- Generator: Sketch 51.3 (57544) - http://www.bohemiancoding.com/sketch -->
    <title>img_success</title>
    <desc>Created with Sketch.</desc>
    <defs></defs>
    <g id="Vendor" stroke="none" stroke-width="1" fill="none" fill-rule="evenodd">
        <g id="Password-Updated" transform="translate(-108.000000, -184.000000)">
            <g id="Content">
                <g id="img_success" transform="translate(108.000000, 184.000000)">
                    <path d="M79.8605941,0 C99.8257426,0 122.009241,1.51796133 136.983102,11.0917492 C141.77252,14.1538484 145.567562,17.9486685 148.629439,22.7380858 C158.203282,37.7119472 159.721188,59.8954455 159.721188,79.8605941 C159.721188,99.8257426 158.203282,122.009241 148.629439,136.983102 C145.567562,141.77252 141.77252,145.567562 136.983102,148.629439 C122.009241,158.203282 99.8257426,159.721188 79.8605941,159.721188 C59.8954455,159.721188 37.7119472,158.203282 22.7380858,148.629439 C17.9486685,145.567562 14.1538484,141.77252 11.0917492,136.983102 C1.51796133,122.009241 0,99.8257426 0,79.8605941 C0,59.8954455 1.51796133,37.7119472 11.0917492,22.7380858 C14.1538484,17.9486685 17.9486685,14.1538484 22.7380858,11.0917492 C37.7119472,1.51796133 59.8954455,0 79.8605941,0 Z" id="Fill" fill="#0EAD69"></path>
                    <path d="M139.618168,41 C141.968875,47.4514493 143.428214,54.5980539 144.316605,61.9777605 L65.3691881,125.039336 L62.1248317,125.039336 L62,117.178108 L139.618168,41 Z" id="Path" fill="#6D7278" opacity="0.200000003"></path>
                    <path d="M143.308277,40.3796436 L129.207683,26.4038812 C127.335842,24.5320396 124.216317,24.5320396 122.21996,26.4038812 L61.949703,88.670495 L35.8700198,62.9653069 C33.9981782,61.0934653 30.8786535,61.0934653 28.882297,62.9653069 L16.4038812,75.3188911 C14.5320396,77.1907327 14.5320396,80.3102574 16.4038812,82.182099 L58.081505,123.484911 C59.2046733,124.608079 60.7020198,124.982257 62.1993663,124.857426 C63.6967129,124.982257 65.1940594,124.607762 66.3172277,123.484911 L143.308277,47.3673663 C145.180119,45.3706931 145.180119,42.2511683 143.308277,40.3796436 Z" id="Path" fill="#F0F0F0"></path>
                    <path d="M66.192396,123.101941 L143.183446,46.984396 C145.055287,45.1125545 145.055287,41.9930297 143.183446,40.1211881 L140.937426,38 L61.949703,115.614891 L18.2757228,73.0640792 L16.4038812,74.9359208 C14.5320396,76.8077624 14.5320396,79.9272871 16.4038812,81.7991287 L58.081505,123.102257 C59.2046733,124.225426 60.7020198,124.599604 62.1993663,124.474772 C63.5718812,124.599287 65.0692277,124.225109 66.192396,123.101941 Z" id="Path" fill="#E0E0E0"></path>
                </g>
            </g>
        </g>
    </g>
</svg>