<?xml version="1.0" encoding="UTF-8"?>
<svg width="20px" height="20px" viewBox="0 0 20 20" version="1.1" xmlns="http://www.w3.org/2000/svg" xmlns:xlink="http://www.w3.org/1999/xlink">
    <!-- Generator: Sketch 51.3 (57544) - http://www.bohemiancoding.com/sketch -->
    <title>ic_search_normal</title>
    <desc>Created with Sketch.</desc>
    <defs></defs>
    <g id="Page-1" stroke="none" stroke-width="1" fill="none" fill-rule="evenodd">
        <g id="Slide01_Rental-Marketplace" transform="translate(-35.000000, -78.000000)" fill="#6D7278">
            <g id="in_search" transform="translate(25.000000, 64.000000)">
                <g id="Icons/24pt/ic_search_normal" transform="translate(8.000000, 12.000000)">
                    <g id="ic_search_normal">
                        <path d="M16.8334235,10.1522659 C16.9684057,10.6878014 16.6436931,11.2313633 16.1081576,11.3663455 C15.5726221,11.5013277 15.0290601,11.1766151 14.8940779,10.6410796 C14.5658316,9.33877779 13.506788,8.32965185 12.1875267,8.06730886 C11.6458481,7.95959283 11.294052,7.43315448 11.401768,6.89147588 C11.509484,6.34979728 12.0359224,5.99800111 12.577601,6.10571714 C14.6552249,6.51886508 16.316646,8.10197565 16.8334235,10.1522659 Z M21.6895309,20.2 L18.6457387,17.1684211 C19.9932009,15.517222 20.7284577,13.4541247 20.7277771,11.3263158 C20.7277771,6.18947368 16.5319941,2 11.3638886,2 C6.19578302,2 2,6.17894737 2,11.3263158 C2,16.4736842 6.19578302,20.6526316 11.3638886,20.6526316 C13.5410455,20.6526316 15.5491028,19.9052632 17.14498,18.6526316 L20.199341,21.6947368 C20.4107154,21.9052632 20.6749335,22 20.9497203,22 C21.2245071,22 21.4887252,21.8947368 21.7000996,21.6947368 C22.1017111,21.2842105 22.1017111,20.6105263 21.6895309,20.2 Z M4.11374459,11.3263158 C4.11374459,7.34736842 7.36891127,4.10526316 11.3638886,4.10526316 C15.3588658,4.10526316 18.6140325,7.34736842 18.6140325,11.3263158 C18.6140325,15.3052632 15.3588658,18.5473684 11.3638886,18.5473684 C7.36891127,18.5473684 4.11374459,15.3052632 4.11374459,11.3263158 Z" id="Fill"></path>
                    </g>
                </g>
            </g>
        </g>
    </g>
</svg>