<?xml version="1.0" encoding="UTF-8"?>
<svg width="20px" height="18px" viewBox="0 0 20 18" version="1.1" xmlns="http://www.w3.org/2000/svg" xmlns:xlink="http://www.w3.org/1999/xlink">
    <!-- Generator: Sketch 51.3 (57544) - http://www.bohemiancoding.com/sketch -->
    <title>ic_send_mess</title>
    <desc>Created with Sketch.</desc>
    <defs></defs>
    <g id="ðŸ‘-Pallas-UI-Kit" stroke="none" stroke-width="1" fill="none" fill-rule="evenodd">
        <g id="Chat-Window" transform="translate(-325.000000, -484.000000)">
            <g id="Content" transform="translate(0.000000, 41.000000)">
                <g id="Action" transform="translate(0.000000, 424.000000)">
                    <g id="Icons/24pt/ic_send" transform="translate(323.000000, 16.000000)">
                        <g id="ic_send">
                            <g id="send">
                                <g>
                                    <rect id="Rectangle" fill="#000000" opacity="0" x="0" y="0" width="23.9765854" height="23.9765854"></rect>
                                    <path d="M11.5989867,16.7856412 C11.561728,16.8853952 11.5086666,16.9795206 11.4396669,17.0631782 L8.4412442,20.7000768 C8.20740555,20.9840097 7.84466245,21.0766139 7.52648305,20.9336049 C7.20830365,20.7905958 6.99934536,20.4410346 6.99953456,20.0520855 L6.99953456,16.4151869 C6.99948898,16.0766948 7.15831618,15.763893 7.41617681,15.5946319 C7.67403745,15.4253709 7.99174802,15.4253709 8.24960865,15.5946319 C8.50746929,15.763893 8.66629649,16.0766948 8.66625091,16.4151869 L8.66625091,17.6562229 L10.2246307,15.7671956 C10.2367657,15.7525035 10.2492158,15.7383492 10.2619579,15.7247336 L10.1471284,15.6336185 C9.76972258,15.3340807 9.67737856,14.7434579 9.94087226,14.3144257 C10.204366,13.8853934 10.7239177,13.7804173 11.1013235,14.0799551 L14.8714359,17.0717044 L19.674079,5.3462828 L4.86697099,9.54212124 L7.93039565,11.8565112 C8.19471895,12.0563202 8.5359409,12.0680747 8.81042188,11.8868266 L13.4138924,8.84297273 C13.8117794,8.57979804 14.3220035,8.73312668 14.5535097,9.18544182 C14.785016,9.63775696 14.6501378,10.2177761 14.2522508,10.4809508 L9.64878019,13.5248047 C8.82507991,14.069622 7.80055737,14.0347186 7.00703479,13.4348058 L2.37189661,9.93148444 C2.09699593,9.7236498 1.95594079,9.35092802 2.01223404,8.98111792 C2.06852728,8.61130781 2.31155418,8.31414121 2.63190436,8.22340209 L20.9657842,3.02810338 C21.2773042,2.93992597 21.6056806,3.06300677 21.8099761,3.3445202 L21.8091427,3.3445202 C22.0136052,3.62591 22.0576922,4.01579652 21.9224794,4.34682253 L15.9639684,18.8934695 C15.8601033,19.1475314 15.6626447,19.3363033 15.4246537,19.4090584 C15.1866627,19.4818135 14.9325491,19.4310895 14.7305984,19.270517 L11.5989867,16.7856412 Z" id="Fill" fill="#4a86f5"></path>
                                </g>
                            </g>
                        </g>
                    </g>
                </g>
            </g>
        </g>
    </g>
</svg>
