<?xml version="1.0" encoding="UTF-8"?>
<svg width="20px" height="13px" viewBox="0 0 20 13" version="1.1" xmlns="http://www.w3.org/2000/svg" xmlns:xlink="http://www.w3.org/1999/xlink">
    <!-- Generator: Sketch 51.3 (57544) - http://www.bohemiancoding.com/sketch -->
    <title>sort-button-with-three-lines</title>
    <desc>Created with Sketch.</desc>
    <defs></defs>
    <g id="Vendor" stroke="none" stroke-width="1" fill="none" fill-rule="evenodd">
        <g id="Results" transform="translate(-334.000000, -154.000000)" fill="#444444" fill-rule="nonzero">
            <g id="header" transform="translate(286.000000, 61.000000)">
                <g id="Group-2">
                    <g id="sort-button-with-three-lines" transform="translate(48.000000, 93.000000)">
                        <path d="M8.07980456,12.1807818 L12.5868621,12.1807818 C13.1832217,12.1807818 13.6666667,11.6973368 13.6666667,11.1009772 L13.6666667,11.1009772 C13.6666667,10.5046176 13.1832217,10.0211726 12.5868621,10.0211726 L8.07980456,10.0211726 C7.48344497,10.0211726 7,10.5046176 7,11.1009772 L7,11.1009772 C7,11.6973368 7.48344497,12.1807818 8.07980456,12.1807818 Z M0,1.1009772 L0,1.1009772 C7.30329865e-17,1.69733679 0.483444969,2.18078176 1.07980456,2.18078176 L18.9201954,2.18078176 C19.516555,2.18078176 20,1.69733679 20,1.1009772 L20,1.1009772 C20,0.504617607 19.516555,0.0211726384 18.9201954,0.0211726384 L1.07980456,0.0211726384 C0.483444969,0.0211726384 -7.30329865e-17,0.504617607 0,1.1009772 Z M4.07980456,7.18078176 L15.2535288,7.18078176 C15.8498884,7.18078176 16.3333333,6.69733679 16.3333333,6.1009772 L16.3333333,6.1009772 C16.3333333,5.50461761 15.8498884,5.02117264 15.2535288,5.02117264 L4.07980456,5.02117264 C3.48344497,5.02117264 3,5.50461761 3,6.1009772 L3,6.1009772 C3,6.69733679 3.48344497,7.18078176 4.07980456,7.18078176 Z" id="Shape"></path>
                    </g>
                </g>
            </g>
        </g>
    </g>
</svg>