<?xml version="1.0" encoding="UTF-8"?>
<svg width="42px" height="40px" viewBox="0 0 42 40" version="1.1" xmlns="http://www.w3.org/2000/svg" xmlns:xlink="http://www.w3.org/1999/xlink">
    <!-- Generator: Sketch 51.3 (57544) - http://www.bohemiancoding.com/sketch -->
    <title>star (2)</title>
    <desc>Created with Sketch.</desc>
    <defs></defs>
    <g id="Page-1" stroke="none" stroke-width="1" fill="none" fill-rule="evenodd">
        <g id="Rank-Vendor" transform="translate(-226.000000, -324.000000)" fill-rule="nonzero">
            <g id="content" transform="translate(20.000000, 145.000000)">
                <g id="feedback-text">
                    <g id="Group-2" transform="translate(0.000000, 179.000000)">
                        <g id="star-(2)" transform="translate(206.185567, 0.000000)">
                            <path d="M28.8604503,39.5048152 L22.8658758,36.5806397 C21.59108,35.958838 20.0999813,35.9603898 18.8265684,36.5848869 L12.8382577,39.5218039 C9.53091464,41.1438138 5.75362741,38.4104343 6.26928886,34.7682423 L7.20291348,28.1736149 C7.40148259,26.7712325 6.93918506,25.356027 5.95056957,24.340137 L1.30188852,19.5625625 C-1.26551816,16.9239275 0.171484439,12.493314 3.80088201,11.8573006 L10.3724539,10.7057462 C11.7699217,10.4607989 12.9754095,9.58465708 13.6378217,8.33223245 L16.7531034,2.4425533 C18.4736832,-0.810287661 23.1390405,-0.81518824 24.8666162,2.43389561 L27.9945068,8.3168773 C28.6596035,9.56791343 29.8669622,10.4415233 31.2649181,10.6834486 L37.8389304,11.821118 C41.4697109,12.4493722 42.9161498,16.8770453 40.3542747,19.5211527 L35.7158435,24.3086099 C34.7295057,25.3267052 34.270218,26.7428092 34.4717157,28.1447831 L35.419332,34.737532 C35.9427215,38.3783355 32.1712099,41.119801 28.8604503,39.5048152 Z" id="Shape" fill="#000000" opacity="0.200000003"></path>
                            <path d="M16.1199111,15.3304796 C16.1199111,14.8348039 16.5227133,14.4329897 17.0196079,14.4329897 L17.1995472,14.4329897 C17.6964418,14.4329897 18.099244,14.8348039 18.099244,15.3304796 C18.099244,15.8261553 17.6964418,16.2279695 17.1995472,16.2279695 L17.0196079,16.2279695 C16.5227133,16.2279695 16.1199111,15.8261553 16.1199111,15.3304796 Z M24.0375662,16.2279695 L24.2175055,16.2279695 C24.7144001,16.2279695 25.1172023,15.8261553 25.1172023,15.3304796 C25.1172023,14.8348039 24.7144001,14.4329897 24.2175055,14.4329897 L24.0375662,14.4329897 C23.5406716,14.4329897 23.1378694,14.8348039 23.1378694,15.3304796 C23.1377886,15.8261553 23.5405908,16.2279695 24.0375662,16.2279695 Z M29.6157671,20.2027291 L27.045124,20.2027291 C26.5482295,20.2027291 26.1454272,20.6045433 26.1454272,21.100219 C26.1454272,21.5958947 26.5482295,21.9977089 27.045124,21.9977089 L27.3695161,21.9977089 C26.9275895,25.3218084 24.0696578,27.8957418 20.6185567,27.8957418 C17.1674556,27.8957418 14.3095239,25.3218084 13.8675974,21.9977089 L14.1919894,21.9977089 C14.6888839,21.9977089 15.0916862,21.5958947 15.0916862,21.100219 C15.0916862,20.6045433 14.6888839,20.2027291 14.1919894,20.2027291 L11.6213463,20.2027291 C11.1244517,20.2027291 10.7216495,20.6045433 10.7216495,21.100219 C10.7216495,21.5958947 11.1244517,21.9977089 11.6213463,21.9977089 L12.0538151,21.9977089 C12.5051185,26.3142887 16.1738282,29.6907216 20.6185567,29.6907216 C25.0632852,29.6907216 28.7319949,26.3142081 29.1832983,21.9977089 L29.6157671,21.9977089 C30.1126617,21.9977089 30.5154639,21.5958947 30.5154639,21.100219 C30.5154639,20.6045433 30.1127425,20.2027291 29.6157671,20.2027291 Z" id="Shape" fill="#FFFFFF"></path>
                        </g>
                    </g>
                </g>
            </g>
        </g>
    </g>
</svg>