<?xml version="1.0" encoding="UTF-8"?>
<svg width="24px" height="24px" viewBox="0 0 24 24" version="1.1" xmlns="http://www.w3.org/2000/svg" xmlns:xlink="http://www.w3.org/1999/xlink">
    <!-- Generator: Sketch 51.3 (57544) - http://www.bohemiancoding.com/sketch -->
    <title>Interview State</title>
    <desc>Created with Sketch.</desc>
    <defs></defs>
    <g id="Vendor" stroke="none" stroke-width="1" fill="none" fill-rule="evenodd">
        <g id="Dashboard-First-Time" transform="translate(-313.000000, -607.000000)">
            <g id="Group-2" transform="translate(26.000000, 397.000000)">
                <g id="Plan" transform="translate(0.000000, 152.000000)">
                    <g id="Icons/24pt/ic_interview_message" transform="translate(287.000000, 58.000000)">
                        <g id="ic_interview_message">
                            <path d="M12,0 C15,0 18.3333333,0.228091667 20.5833333,1.66666667 C21.303,2.12678333 21.87325,2.697 22.3333333,3.41666667 C23.7719167,5.66666667 24,9 24,12 C24,15 23.7719167,18.3333333 22.3333333,20.5833333 C21.87325,21.303 21.303,21.87325 20.5833333,22.3333333 C18.3333333,23.7719167 15,24 12,24 C9,24 5.66666667,23.7719167 3.41666667,22.3333333 C2.697,21.87325 2.12678333,21.303 1.66666667,20.5833333 C0.228091667,18.3333333 0,15 0,12 C0,9 0.228091667,5.66666667 1.66666667,3.41666667 C2.12678333,2.697 2.697,2.12678333 3.41666667,1.66666667 C5.66666667,0.228091667 9,0 12,0 Z" id="Fill" fill="#BF1E2E"></path>
                            <path d="M7.754925,7.75810833 C8.88900788,6.62410823 10.3945545,6 11.9971263,6 C13.5996981,6 15.1052448,6.62410823 16.2393276,7.75810833 C17.3743577,8.89305552 18,10.3988753 18,12 C18,13.6024548 17.3758462,15.1078916 16.2417633,16.2418917 C15.1066868,17.3768854 13.5789395,18 11.9946906,18 C11.0591177,18 10.1348602,17.7817545 9.2939932,17.3555582 C8.62844458,17.8001706 7.93062326,17.9878224 7.24995529,17.9878224 C7.0710248,17.9878224 6.90681791,17.974085 6.75742703,17.950848 C6.42074298,17.898245 6.15942051,17.6349238 6.10673627,17.2977693 C6.05405564,16.9606378 6.22604831,16.6318523 6.53268691,16.4803069 C6.82620085,16.3359929 7.07509033,16.0612246 7.27583637,15.7008501 C5.41259297,13.3317109 5.60524537,9.90763104 7.754925,7.75810833 Z" id="icon" fill="#FFFFFF"></path>
                        </g>
                    </g>
                </g>
            </g>
        </g>
    </g>
</svg>